<svg width="256" height="256" viewBox="0 0 256 256" fill="none" xmlns="http://www.w3.org/2000/svg">
<g filter="url(#filter0_ii_2_34)">
<rect width="256" height="256" rx="55" fill="white"/>
<g filter="url(#filter1_ddi_2_34)">
<path d="M118.152 33.5291C115.218 34.5504 113.149 36.6714 112.127 39.7614C111.76 40.8874 111.682 42.0657 111.682 45.9674C111.682 49.7382 111.603 50.838 111.315 51.0737C111.106 51.2308 110.948 51.3094 110.948 51.2308C110.948 51.1523 110.346 51.257 109.586 51.4665C108.853 51.7022 108.015 51.9117 107.726 51.964C107.464 52.0426 106.993 52.1473 106.679 52.2521C106.364 52.383 105.998 52.4616 105.84 52.4878C105.709 52.5139 105.395 52.5925 105.186 52.6711C104.976 52.7496 103.797 53.1686 102.566 53.5614C101.335 53.9542 100.235 54.3731 100.104 54.5041C99.9466 54.6088 99.6846 54.7136 99.4751 54.7136C99.0822 54.7136 97.6938 55.2897 96.4889 55.9181C96.0698 56.1538 95.7554 56.2323 95.7554 56.1014C95.7554 55.9967 95.6507 55.9967 95.5459 56.1538C95.3887 56.3895 92.8478 57.6726 92.6907 57.6202C92.6383 57.6202 91.4857 58.2487 90.0974 59.0342C88.7091 59.8198 87.4779 60.4745 87.3469 60.4745C87.216 60.4745 87.1112 60.553 87.1112 60.6578C87.1112 60.8934 85.6181 61.7838 85.2513 61.7838C85.1204 61.7838 83.4439 60.2126 81.5317 58.301C78.074 54.8969 77.262 54.3208 74.6163 53.4566C72.6255 52.8282 68.7749 53.5614 66.9674 54.9492C65.5005 56.049 55.4155 66.2616 54.7607 67.2828C53.189 69.7967 52.7961 73.7246 53.9224 75.7933C54.0796 76.0813 54.2368 76.4479 54.263 76.6312C54.3678 77.2335 55.8347 78.9356 58.8994 81.9993C60.5759 83.6752 61.9642 85.1416 61.9642 85.2202C61.9642 85.325 61.6237 85.8749 61.2046 86.4771C60.8117 87.0794 60.3925 87.8388 60.2878 88.153C60.183 88.4935 59.9996 88.7553 59.8948 88.7553C59.7639 88.7553 59.5281 89.1481 59.3186 89.5933C59.1352 90.0646 58.8994 90.5098 58.8209 90.5883C58.6899 90.6931 56.6729 94.6995 56.5943 95.0399C56.5681 95.1185 56.3586 95.6422 56.0966 96.2183C55.0226 98.6274 53.3985 102.896 53.189 103.812C53.1628 103.943 53.058 104.257 52.9794 104.467C52.7437 104.991 51.7483 108.761 51.4339 110.28C51.2768 110.987 51.0934 111.537 50.9886 111.563C50.91 111.563 48.6049 111.616 45.8545 111.642C43.104 111.668 40.406 111.851 39.8035 112.008C36.6601 112.925 33.7787 116.198 33.2286 119.524C33.0976 120.231 33.019 124.368 33.0452 128.689C33.0714 136.073 33.1238 136.623 33.6477 138.037C34.7217 140.813 36.6077 142.672 39.463 143.798C40.7203 144.27 41.4799 144.348 45.9854 144.374L51.0934 144.4L51.4339 145.71C51.6173 146.417 51.8269 147.229 51.8793 147.49C51.9316 147.752 52.0626 148.197 52.1412 148.459C52.2198 148.721 52.3246 149.166 52.377 149.428C52.7699 151.392 55.4155 158.462 55.7299 158.358C55.8609 158.305 60.6021 153.644 66.2602 147.988L76.5547 137.697L76.3451 136.545C75.7165 133.245 75.5069 125.442 75.9522 122.142C76.0832 121.278 76.188 120.283 76.2142 119.917C76.4761 117.324 78.4669 110.385 79.829 107.347C81.6627 103.262 83.9678 99.2297 85.6443 97.0824C85.9586 96.7158 86.4825 96.0088 86.8492 95.5375C89.0758 92.5785 93.4765 88.284 96.8032 85.7963C99.8418 83.5181 104.766 80.7948 108.329 79.4069C111.472 78.1762 112.022 77.9667 112.389 77.8881C112.546 77.8358 113.306 77.6263 114.092 77.3906C114.878 77.1811 116.004 76.9193 116.58 76.8145C117.157 76.736 117.733 76.605 117.838 76.5265C117.942 76.4741 118.414 76.3432 118.885 76.2908C119.357 76.2122 120.012 76.1075 120.378 76.0551C123.312 75.5838 129.94 75.4267 133.083 75.7671C140.915 76.605 147.411 78.6999 154.301 82.5754C155.322 83.1515 156.187 83.7014 156.265 83.78C156.344 83.8585 156.946 84.2775 157.627 84.6965C158.335 85.1416 158.885 85.5606 158.885 85.6654C158.885 85.7963 159.016 85.8749 159.173 85.8749C159.461 85.8749 161.373 87.4198 163.574 89.41C164.648 90.3788 165.093 90.824 167.267 93.2069C168.577 94.621 170.987 97.868 172.349 99.9629C174.706 103.681 178.007 111.197 178.662 114.418C178.714 114.627 178.871 115.282 179.002 115.858C179.159 116.434 179.343 117.246 179.421 117.691C179.5 118.11 179.605 118.764 179.683 119.131C179.867 120.074 180.129 121.985 180.233 123.19C180.391 124.787 180.391 131.438 180.233 132.617C179.579 137.88 179.474 138.404 178.138 143.222C177.326 146.207 175.073 151.34 173.344 154.22C173.03 154.718 172.585 155.477 172.349 155.922C172.113 156.341 171.825 156.76 171.746 156.839C171.668 156.917 171.249 157.467 170.856 158.096C170.018 159.405 166.35 163.778 165.224 164.878C162.735 167.235 160.43 169.199 158.885 170.272C154.851 173.074 151.76 174.802 148.145 176.295C146.076 177.159 142.303 178.442 141.177 178.704C135.205 180.013 133.109 180.275 128.106 180.249C123.653 180.249 120.326 179.987 118.807 179.49C118.44 179.385 115.899 181.768 107.962 189.702C102.252 195.411 97.5891 200.177 97.5891 200.308C97.5891 200.412 98.2177 200.726 98.9774 200.988C99.7108 201.224 100.47 201.512 100.601 201.617C100.759 201.722 102.095 202.193 103.614 202.638C105.133 203.109 106.652 203.607 107.019 203.712C107.386 203.843 108.329 204.078 109.115 204.235C111.891 204.838 111.656 204.262 111.682 210.075C111.682 213.27 111.813 215.391 111.996 215.731C112.153 216.045 112.206 216.281 112.127 216.281C112.049 216.281 112.284 216.857 112.651 217.564C113.358 218.952 115.349 221.256 115.873 221.256C116.056 221.256 116.187 221.361 116.187 221.492C116.187 221.623 116.633 221.885 117.183 222.068C117.707 222.225 118.309 222.513 118.519 222.67C118.781 222.88 121.583 222.958 127.687 222.958C135.729 222.958 136.619 222.906 138.008 222.435C138.82 222.173 139.501 221.832 139.501 221.728C139.501 221.623 139.658 221.518 139.867 221.518C140.391 221.518 142.801 219.004 143.299 217.931C144.242 215.967 144.399 214.815 144.399 209.892C144.425 207.194 144.451 204.942 144.53 204.89C144.582 204.838 144.923 204.733 145.263 204.654C148.931 203.895 155.689 201.695 159.225 200.098C160.194 199.653 160.98 199.365 160.98 199.47C160.98 199.574 161.085 199.522 161.19 199.391C161.295 199.234 162.316 198.658 163.469 198.108C164.621 197.532 165.617 197.008 165.695 196.93C165.774 196.825 166.141 196.615 166.534 196.458C166.927 196.275 167.739 195.804 168.367 195.411C170.934 193.735 170.541 193.604 174.34 197.401C177.955 201.041 179.159 201.905 181.412 202.455C183.822 203.057 185.918 202.769 188.354 201.512C189.402 200.962 199.88 190.723 201.111 189.048C203.128 186.246 203.337 182.213 201.608 178.94C201.294 178.337 199.434 176.243 197.496 174.279L193.933 170.691L194.431 170.01C195.007 169.172 195.688 168.046 196.422 166.659C196.736 166.082 197.05 165.559 197.155 165.48C197.312 165.323 199.827 160.191 199.853 159.955C199.88 159.876 200.168 159.169 200.508 158.384C200.849 157.598 201.215 156.734 201.346 156.446C201.792 155.346 203.206 151.13 203.573 149.769C204.071 147.962 204.752 145.317 204.83 144.793C204.883 144.453 205.669 144.4 209.729 144.374C214.994 144.322 215.754 144.243 217.482 143.458C218.687 142.908 219.316 142.463 220.364 141.389C220.992 140.761 222.328 138.666 222.459 138.116C222.486 137.985 222.643 137.304 222.8 136.649C223.114 135.366 223.036 119.733 222.721 118.633C221.857 115.57 218.792 112.585 215.858 111.904C215.439 111.825 212.846 111.72 210.122 111.694C204.595 111.616 204.909 111.747 204.464 109.521C204.333 108.84 203.966 107.426 203.678 106.431C203.363 105.41 203.101 104.415 203.023 104.205C202.97 103.996 202.918 103.786 202.892 103.734C202.84 103.707 202.813 103.603 202.761 103.472C202.735 103.367 202.63 103.105 202.551 102.896C202.447 102.686 202.185 101.901 201.949 101.194C201.713 100.46 201.399 99.5963 201.242 99.2297C201.111 98.8631 200.953 98.4441 200.927 98.287C200.744 97.5276 197.024 90.1432 195.636 87.8126L194.064 85.1416L197.627 81.528C200.01 79.1189 201.399 77.4692 201.792 76.6312C203.573 72.8604 202.944 68.7754 200.141 65.764C197.155 62.5432 189.611 55.2111 188.747 54.6612C186.258 53.1424 182.617 52.7496 180.233 53.7709C179.657 54.0065 179.133 54.216 179.055 54.2422C178.714 54.2684 176.802 55.9967 174.051 58.7462C172.375 60.4221 170.803 61.7838 170.594 61.7838C170.358 61.7838 169.939 61.5219 169.625 61.2077C169.336 60.8934 169.101 60.7363 169.101 60.8934C169.101 61.0244 168.996 60.9982 168.891 60.8411C168.655 60.5007 164.045 57.9344 161.635 56.8084C159.723 55.9181 154.746 53.9018 154.301 53.8232C154.17 53.7971 153.934 53.7185 153.777 53.6399C153.646 53.5352 152.808 53.2733 151.943 53.0115C151.079 52.7496 149.664 52.3306 148.8 52.0688C147.935 51.8069 146.573 51.4665 145.787 51.3094L144.347 50.9952V45.5747L144.32 40.1804L143.561 38.6092C142.801 37.038 140.286 34.2885 139.605 34.2885C139.396 34.2885 139.239 34.1838 139.239 34.079C139.239 33.9481 138.558 33.66 137.746 33.4244C136.488 33.084 134.733 33.0054 127.975 33.0054C120.3 32.9792 119.619 33.0316 118.152 33.5291Z" fill="#189754"/>
<path d="M126.587 88.6506C126.56 88.6768 125.434 88.7553 124.124 88.8601C122.788 88.9648 121.557 89.0696 121.374 89.1481C121.191 89.2005 120.745 89.3052 120.378 89.3838C117.602 89.8813 112.965 91.4525 110.555 92.6832C108.853 93.5735 105.919 95.3018 105.709 95.5375C105.631 95.6422 105.107 96.0088 104.531 96.4016C103.954 96.7944 103.064 97.5014 102.54 97.9728C102.016 98.4441 101.309 99.0988 100.968 99.413C99.0298 101.141 96.2007 104.572 94.76 106.955C93.2931 109.311 91.3547 113.475 90.7784 115.465C90.4379 116.539 90.0712 117.56 89.9664 117.717C89.8354 117.874 89.783 118.057 89.8616 118.136C89.9402 118.188 89.8616 118.66 89.7306 119.157C89.5735 119.655 89.3901 120.519 89.3115 121.095C89.2329 121.671 89.102 122.43 89.0496 122.797C88.971 123.164 88.8924 125.101 88.84 127.118C88.7614 130.339 89.0234 133.533 89.5735 136.152C89.6521 136.519 89.783 137.068 89.8354 137.409C89.914 137.723 90.2283 138.823 90.5689 139.818L91.1452 141.677L63.9812 168.832C49.0502 183.758 36.3982 196.563 35.9005 197.27C35.4028 197.977 34.9836 198.71 34.9836 198.92C34.9836 199.103 34.9051 199.26 34.7741 199.26C34.5645 199.26 33.9621 200.517 33.8049 201.329C33.7525 201.643 33.6477 201.983 33.5691 202.088C33.019 202.979 32.8095 207.613 33.2024 209.708C33.4382 211.044 34.6431 214.422 34.9575 214.71C35.036 214.788 35.2718 215.155 35.4552 215.522C35.9005 216.386 38.4937 219.109 39.6987 219.999C42.5801 222.094 46.1164 223.142 49.8623 222.985C52.7437 222.854 54.4725 222.408 57.1182 221.047C58.8209 220.183 61.0736 218.009 86.6659 192.452L114.38 164.747L115.663 165.245C116.371 165.506 117.209 165.768 117.549 165.847C117.89 165.925 118.388 166.03 118.676 166.109C122.553 166.999 123.627 167.13 127.844 167.13C131.773 167.156 133.764 166.947 136.881 166.24C139.029 165.742 142.985 164.407 144.085 163.83C144.373 163.673 144.661 163.516 144.74 163.516C145.342 163.412 151.026 160.034 151.55 159.457C151.629 159.379 152.205 158.908 152.86 158.384C156.37 155.556 159.802 151.575 161.976 147.805C163.259 145.553 165.145 141.258 165.564 139.556C165.591 139.478 165.669 139.242 165.748 139.032C166.01 138.404 166.717 135.209 166.9 133.926C167.188 132.093 167.267 130.889 167.293 128.296C167.293 125.651 167.084 122.09 166.874 121.75C166.822 121.671 166.717 121.069 166.612 120.44C166.036 116.486 162.421 114.339 159.094 115.963C158.361 116.329 155.61 118.869 151.157 123.347C147.411 127.118 143.77 130.653 143.063 131.229C139.632 133.952 134.995 134.764 130.778 133.35C129.756 132.983 128.839 132.617 128.761 132.538C128.682 132.434 128.315 132.198 127.923 131.988C126.901 131.465 125.067 129.658 124.151 128.27C121.374 124.159 121.138 119.367 123.469 114.837C124.281 113.292 125.513 111.93 132.061 105.357C136.252 101.141 139.867 97.3443 140.103 96.9254C140.313 96.5064 140.47 95.4328 140.496 94.5686C140.496 92.9189 139.867 91.6096 138.584 90.536C137.693 89.7766 134.078 88.9124 131.249 88.7553C129.442 88.6506 126.665 88.5982 126.587 88.6506Z" fill="#323232"/>
</g>
</g>
<defs>
<filter id="filter0_ii_2_34" x="-10" y="-10" width="276" height="276" filterUnits="userSpaceOnUse" color-interpolation-filters="sRGB">
<feFlood flood-opacity="0" result="BackgroundImageFix"/>
<feBlend mode="normal" in="SourceGraphic" in2="BackgroundImageFix" result="shape"/>
<feColorMatrix in="SourceAlpha" type="matrix" values="0 0 0 0 0 0 0 0 0 0 0 0 0 0 0 0 0 0 127 0" result="hardAlpha"/>
<feOffset dx="10" dy="10"/>
<feGaussianBlur stdDeviation="5"/>
<feComposite in2="hardAlpha" operator="arithmetic" k2="-1" k3="1"/>
<feColorMatrix type="matrix" values="0 0 0 0 0 0 0 0 0 0 0 0 0 0 0 0 0 0 0.2 0"/>
<feBlend mode="normal" in2="shape" result="effect1_innerShadow_2_34"/>
<feColorMatrix in="SourceAlpha" type="matrix" values="0 0 0 0 0 0 0 0 0 0 0 0 0 0 0 0 0 0 127 0" result="hardAlpha"/>
<feOffset dx="-10" dy="-10"/>
<feGaussianBlur stdDeviation="5"/>
<feComposite in2="hardAlpha" operator="arithmetic" k2="-1" k3="1"/>
<feColorMatrix type="matrix" values="0 0 0 0 0 0 0 0 0 0 0 0 0 0 0 0 0 0 0.2 0"/>
<feBlend mode="normal" in2="effect1_innerShadow_2_34" result="effect2_innerShadow_2_34"/>
</filter>
<filter id="filter1_ddi_2_34" x="25.5" y="25.5" width="205" height="205" filterUnits="userSpaceOnUse" color-interpolation-filters="sRGB">
<feFlood flood-opacity="0" result="BackgroundImageFix"/>
<feColorMatrix in="SourceAlpha" type="matrix" values="0 0 0 0 0 0 0 0 0 0 0 0 0 0 0 0 0 0 127 0" result="hardAlpha"/>
<feOffset dx="2.5" dy="2.5"/>
<feGaussianBlur stdDeviation="2.5"/>
<feComposite in2="hardAlpha" operator="out"/>
<feColorMatrix type="matrix" values="0 0 0 0 0.196078 0 0 0 0 0.196078 0 0 0 0 0.196078 0 0 0 0.25 0"/>
<feBlend mode="normal" in2="BackgroundImageFix" result="effect1_dropShadow_2_34"/>
<feColorMatrix in="SourceAlpha" type="matrix" values="0 0 0 0 0 0 0 0 0 0 0 0 0 0 0 0 0 0 127 0" result="hardAlpha"/>
<feOffset dx="-2.5" dy="-2.5"/>
<feGaussianBlur stdDeviation="2.5"/>
<feComposite in2="hardAlpha" operator="out"/>
<feColorMatrix type="matrix" values="0 0 0 0 0.0941176 0 0 0 0 0.592157 0 0 0 0 0.329412 0 0 0 0.25 0"/>
<feBlend mode="normal" in2="effect1_dropShadow_2_34" result="effect2_dropShadow_2_34"/>
<feBlend mode="normal" in="SourceGraphic" in2="effect2_dropShadow_2_34" result="shape"/>
<feColorMatrix in="SourceAlpha" type="matrix" values="0 0 0 0 0 0 0 0 0 0 0 0 0 0 0 0 0 0 127 0" result="hardAlpha"/>
<feOffset dy="4"/>
<feGaussianBlur stdDeviation="2"/>
<feComposite in2="hardAlpha" operator="arithmetic" k2="-1" k3="1"/>
<feColorMatrix type="matrix" values="0 0 0 0 0 0 0 0 0 0 0 0 0 0 0 0 0 0 0.25 0"/>
<feBlend mode="normal" in2="shape" result="effect3_innerShadow_2_34"/>
</filter>
</defs>
</svg>
